{"asset":{"version":"2.0","generator":"Blockbench 5.1.4 glTF exporter"},"scenes":[{"nodes":[11],"name":"blockbench_export"}],"scene":0,"nodes":[{"translation":[0,0.125,0],"name":"head"},{"translation":[0,0.125,0],"name":"right_arm2"},{"rotation":[0,0,-0.9396926207859083,0.3420201433256688],"translation":[0.0625,0.125,0],"name":"right_arm","children":[1]},{"translation":[0,0.125,0],"name":"left_arm2"},{"rotation":[0,0,0.9396926207859083,0.3420201433256688],"translation":[-0.0625,0.125,0],"name":"left_arm","children":[3]},{"translation":[0,0.0625,0],"name":"chest","children":[0,2,4]},{"translation":[0,0.09375,0],"name":"right_leg2"},{"rotation":[0,0,-1,6.123233995736766e-17],"translation":[0.0625,0.0625,0],"name":"right_leg","children":[6]},{"translation":[0,0.09375,0],"name":"left_leg2"},{"rotation":[0,0,1,6.123233995736766e-17],"translation":[-0.0625,0.0625,0],"name":"left_leg","children":[8]},{"translation":[0,0.15625,0],"name":"torso","children":[5,7,9]},{"name":"armature","mesh":0,"children":[10],"skin":0}],"bufferViews":[{"buffer":0,"byteOffset":0,"byteLength":136752,"target":34962,"byteStride":12},{"buffer":0,"byteOffset":136752,"byteLength":136752,"target":34962,"byteStride":12},{"buffer":0,"byteOffset":273504,"byteLength":91168,"target":34962,"byteStride":8},{"buffer":0,"byteOffset":364672,"byteLength":91168,"target":34962,"byteStride":8},{"buffer":0,"byteOffset":455840,"byteLength":182336,"target":34962,"byteStride":16},{"buffer":0,"byteOffset":638176,"byteLength":1872,"target":34963},{"buffer":0,"byteOffset":640048,"byteLength":6816,"target":34963},{"buffer":0,"byteOffset":646864,"byteLength":25488,"target":34963},{"buffer":0,"byteOffset":672352,"byteLength":704},{"buffer":0,"byteOffset":673056,"byteLength":20},{"buffer":0,"byteOffset":673076,"byteLength":60},{"buffer":0,"byteOffset":673136,"byteLength":20},{"buffer":0,"byteOffset":673156,"byteLength":80},{"buffer":0,"byteOffset":673236,"byteLength":20},{"buffer":0,"byteOffset":673256,"byteLength":80},{"buffer":0,"byteOffset":673336,"byteLength":20},{"buffer":0,"byteOffset":673356,"byteLength":80},{"buffer":0,"byteOffset":673436,"byteLength":20},{"buffer":0,"byteOffset":673456,"byteLength":80},{"buffer":0,"byteOffset":673536,"byteLength":20},{"buffer":0,"byteOffset":673556,"byteLength":80},{"buffer":0,"byteOffset":673636,"byteLength":20},{"buffer":0,"byteOffset":673656,"byteLength":80},{"buffer":0,"byteOffset":673736,"byteLength":20},{"buffer":0,"byteOffset":673756,"byteLength":60},{"buffer":0,"byteOffset":673816,"byteLength":20},{"buffer":0,"byteOffset":673836,"byteLength":80},{"buffer":0,"byteOffset":673916,"byteLength":20},{"buffer":0,"byteOffset":673936,"byteLength":80}],"buffers":[{"byteLength":674016,"uri":"data:application/octet-stream;base64,"}],"accessors":[{"bufferView":0,"componentType":5126,"count":11396,"max":[0.24461999535560608,0.6613394021987915,0.21007198095321655],"min":[-0.24461999535560608,-0.006249996833503246,-0.197625070810318],"type":"VEC3"},{"bufferView":1,"componentType":5126,"count":11396,"max":[1,1,1],"min":[-1,-1,-1],"type":"VEC3"},{"bufferView":2,"componentType":5126,"count":11396,"max":[0.6168506145477295,0.61328125],"min":[0,0],"type":"VEC2"},{"bufferView":3,"componentType":5123,"count":11396,"max":[10,9,0,0],"min":[0,0,0,0],"type":"VEC4"},{"bufferView":4,"componentType":5126,"count":11396,"max":[1,0.4410814344882965,0,0],"min":[0,0,0,0],"type":"VEC4"},{"bufferView":5,"componentType":5123,"count":936,"max":[623],"min":[0],"type":"SCALAR"},{"bufferView":6,"componentType":5123,"count":3408,"max":[2899],"min":[624],"type":"SCALAR"},{"bufferView":7,"componentType":5123,"count":12744,"max":[11395],"min":[2900],"type":"SCALAR"},{"bufferView":8,"componentType":5126,"count":11,"max":[1,0.6427876353263855,0,0,0.6427876353263855,1,0,0,0,0,1,0,0.26883602142333984,0.22315354645252228,0,1],"min":[-1,-0.6427876353263855,0,0,-0.6427876353263855,-1,0,0,0,0,1,0,-0.26883602142333984,-0.34375,0,1],"type":"MAT4"},{"bufferView":9,"componentType":5126,"count":5,"max":[1],"min":[0],"type":"SCALAR"},{"bufferView":10,"componentType":5126,"count":5,"max":[0,0.0625,0],"min":[0,0.03125,0],"type":"VEC3"},{"bufferView":11,"componentType":5126,"count":5,"max":[1],"min":[0],"type":"SCALAR"},{"bufferView":12,"componentType":5126,"count":5,"max":[0.0885213240981102,0.2432103455066681,-0.9076733589172363,0.3420201539993286],"min":[-0.0885213240981102,-0.2432103455066681,-0.9396926164627075,0.3303660750389099],"type":"VEC4"},{"bufferView":13,"componentType":5126,"count":5,"max":[1],"min":[0],"type":"SCALAR"},{"bufferView":14,"componentType":5126,"count":5,"max":[0,0,0,1],"min":[-0.2164396196603775,0,0,0.9762960076332092],"type":"VEC4"},{"bufferView":15,"componentType":5126,"count":5,"max":[1],"min":[0],"type":"SCALAR"},{"bufferView":16,"componentType":5126,"count":5,"max":[0.0885213240981102,0.2432103455066681,0.9396926164627075,0.3420201539993286],"min":[-0.0885213240981102,-0.2432103455066681,0.9076733589172363,0.3303660750389099],"type":"VEC4"},{"bufferView":17,"componentType":5126,"count":5,"max":[1],"min":[0],"type":"SCALAR"},{"bufferView":18,"componentType":5126,"count":5,"max":[0,0,0.2164396196603775,1],"min":[-0.2164396196603775,0,0,0.9762960076332092],"type":"VEC4"},{"bufferView":19,"componentType":5126,"count":5,"max":[1],"min":[0],"type":"SCALAR"},{"bufferView":20,"componentType":5126,"count":5,"max":[1.5848095630968816e-17,0.258819043636322,-0.9659258127212524,6.123234262925839e-17],"min":[-1.5848095630968816e-17,-0.258819043636322,-1,5.914589533937914e-17],"type":"VEC4"},{"bufferView":21,"componentType":5126,"count":5,"max":[1],"min":[0],"type":"SCALAR"},{"bufferView":22,"componentType":5126,"count":5,"max":[1.5848095630968816e-17,0.258819043636322,1,6.123234262925839e-17],"min":[-1.5848095630968816e-17,-0.258819043636322,0.9659258127212524,5.914589533937914e-17],"type":"VEC4"},{"bufferView":23,"componentType":5126,"count":5,"max":[1],"min":[0],"type":"SCALAR"},{"bufferView":24,"componentType":5126,"count":5,"max":[0,0.078125,0],"min":[0,0.0625,0],"type":"VEC3"},{"bufferView":25,"componentType":5126,"count":5,"max":[1],"min":[0],"type":"SCALAR"},{"bufferView":26,"componentType":5126,"count":5,"max":[0,0,-0.9063078165054321,0.4226182699203491],"min":[0,0,-0.9396926164627075,0.3420201539993286],"type":"VEC4"},{"bufferView":27,"componentType":5126,"count":5,"max":[1],"min":[0],"type":"SCALAR"},{"bufferView":28,"componentType":5126,"count":5,"max":[0,0,0.9396926164627075,0.4226182699203491],"min":[0,0,0.9063078165054321,0.3420201539993286],"type":"VEC4"}],"materials":[{"pbrMetallicRoughness":{"metallicFactor":0,"roughnessFactor":1,"baseColorTexture":{"index":0}},"alphaMode":"MASK","alphaCutoff":0.05,"doubleSided":true},{"pbrMetallicRoughness":{"metallicFactor":0,"roughnessFactor":1,"baseColorTexture":{"index":1}},"alphaMode":"MASK","alphaCutoff":0.05,"doubleSided":true},{"pbrMetallicRoughness":{"metallicFactor":0,"roughnessFactor":1,"baseColorTexture":{"index":2}},"alphaMode":"MASK","alphaCutoff":0.05,"doubleSided":true}],"textures":[{"sampler":0,"source":0,"name":"texture"},{"sampler":1,"source":1,"name":"texture"},{"sampler":2,"source":2,"name":"texture"}],"samplers":[{"magFilter":9728,"minFilter":9728,"wrapS":33071,"wrapT":33071},{"magFilter":9728,"minFilter":9728,"wrapS":33071,"wrapT":33071},{"magFilter":9728,"minFilter":9728,"wrapS":33071,"wrapT":33071}],"images":[{"mimeType":"image/png","uri":"data:image/png;base64,"},{"mimeType":"image/png","uri":"data:image/png;base64,"},{"mimeType":"image/png","uri":"data:image/png;base64,"}],"meshes":[{"primitives":[{"mode":4,"attributes":{"POSITION":0,"NORMAL":1,"TEXCOORD_0":2,"JOINTS_0":3,"WEIGHTS_0":4},"indices":5,"material":0},{"mode":4,"attributes":{"POSITION":0,"NORMAL":1,"TEXCOORD_0":2,"JOINTS_0":3,"WEIGHTS_0":4},"indices":6,"material":1},{"mode":4,"attributes":{"POSITION":0,"NORMAL":1,"TEXCOORD_0":2,"JOINTS_0":3,"WEIGHTS_0":4},"indices":7,"material":2}]}],"skins":[{"inverseBindMatrices":8,"joints":[10,5,0,2,1,4,3,7,6,9,8],"skeleton":10}],"animations":[{"name":"walk","samplers":[{"input":9,"output":10,"interpolation":"LINEAR"},{"input":11,"output":12,"interpolation":"LINEAR"},{"input":13,"output":14,"interpolation":"LINEAR"},{"input":15,"output":16,"interpolation":"LINEAR"},{"input":17,"output":18,"interpolation":"LINEAR"},{"input":19,"output":20,"interpolation":"LINEAR"},{"input":21,"output":22,"interpolation":"LINEAR"}],"channels":[{"sampler":0,"target":{"node":5,"path":"translation"}},{"sampler":1,"target":{"node":2,"path":"rotation"}},{"sampler":2,"target":{"node":1,"path":"rotation"}},{"sampler":3,"target":{"node":4,"path":"rotation"}},{"sampler":4,"target":{"node":3,"path":"rotation"}},{"sampler":5,"target":{"node":7,"path":"rotation"}},{"sampler":6,"target":{"node":9,"path":"rotation"}}]},{"name":"idle","samplers":[{"input":23,"output":24,"interpolation":"LINEAR"},{"input":25,"output":26,"interpolation":"LINEAR"},{"input":27,"output":28,"interpolation":"LINEAR"}],"channels":[{"sampler":0,"target":{"node":5,"path":"translation"}},{"sampler":1,"target":{"node":2,"path":"rotation"}},{"sampler":2,"target":{"node":4,"path":"rotation"}}]}]}