{"asset":{"version":"2.0","generator":"Blockbench 5.1.4 glTF exporter"},"scenes":[{"nodes":[0],"name":"blockbench_export"}],"scene":0,"nodes":[{"translation":[0,-0.125,0],"name":"mesh","mesh":0}],"bufferViews":[{"buffer":0,"byteOffset":0,"byteLength":10584,"target":34962,"byteStride":12},{"buffer":0,"byteOffset":10584,"byteLength":10584,"target":34962,"byteStride":12},{"buffer":0,"byteOffset":21168,"byteLength":7056,"target":34962,"byteStride":8},{"buffer":0,"byteOffset":28224,"byteLength":2496,"target":34963},{"buffer":0,"byteOffset":30720,"byteLength":96,"target":34963}],"buffers":[{"byteLength":30816,"uri":"data:application/octet-stream;base64,"}],"accessors":[{"bufferView":0,"componentType":5126,"count":882,"max":[0.1663592904806137,0.4375,0.1875],"min":[-0.1663592904806137,0.125,-0.1875],"type":"VEC3"},{"bufferView":1,"componentType":5126,"count":882,"max":[1,1,1],"min":[-1,-1,-1],"type":"VEC3"},{"bufferView":2,"componentType":5126,"count":882,"max":[0.8712562322616577,0.8895249962806702],"min":[0,0],"type":"VEC2"},{"bufferView":3,"componentType":5123,"count":1248,"max":[847],"min":[0],"type":"SCALAR"},{"bufferView":4,"componentType":5123,"count":48,"max":[881],"min":[848],"type":"SCALAR"}],"materials":[{"pbrMetallicRoughness":{"metallicFactor":0,"roughnessFactor":1,"baseColorTexture":{"index":0}},"alphaMode":"MASK","alphaCutoff":0.05,"doubleSided":true},{"pbrMetallicRoughness":{"metallicFactor":0,"roughnessFactor":1,"baseColorTexture":{"index":1}},"alphaMode":"MASK","alphaCutoff":0.05,"doubleSided":true}],"textures":[{"sampler":0,"source":0,"name":"texture"},{"sampler":1,"source":1,"name":"texture"}],"samplers":[{"magFilter":9728,"minFilter":9728,"wrapS":33071,"wrapT":33071},{"magFilter":9728,"minFilter":9728,"wrapS":33071,"wrapT":33071}],"images":[{"mimeType":"image/png","uri":"data:image/png;base64,"},{"mimeType":"image/png","uri":"data:image/png;base64,"}],"meshes":[{"primitives":[{"mode":4,"attributes":{"POSITION":0,"NORMAL":1,"TEXCOORD_0":2},"indices":3,"material":0},{"mode":4,"attributes":{"POSITION":0,"NORMAL":1,"TEXCOORD_0":2},"indices":4,"material":1}]}]}