{"asset":{"version":"2.0","generator":"Blockbench 5.1.4 glTF exporter"},"scenes":[{"nodes":[0],"name":"blockbench_export"}],"scene":0,"nodes":[{"translation":[0,-0.140625,0],"name":"flower","mesh":0}],"bufferViews":[{"buffer":0,"byteOffset":0,"byteLength":6816,"target":34962,"byteStride":12},{"buffer":0,"byteOffset":6816,"byteLength":6816,"target":34962,"byteStride":12},{"buffer":0,"byteOffset":13632,"byteLength":4544,"target":34962,"byteStride":8},{"buffer":0,"byteOffset":18176,"byteLength":1680,"target":34963}],"buffers":[{"byteLength":19856,"uri":"data:application/octet-stream;base64,"}],"accessors":[{"bufferView":0,"componentType":5126,"count":568,"max":[0.05833333358168602,0.16770833730697632,0.05833333358168602],"min":[-0.05833333358168602,0.14432373642921448,-0.05807291716337204],"type":"VEC3"},{"bufferView":1,"componentType":5126,"count":568,"max":[0.9361781477928162,0.9999917149543762,0.9361781477928162],"min":[-0.9361781477928162,-0.9999917149543762,-0.9351708889007568],"type":"VEC3"},{"bufferView":2,"componentType":5126,"count":568,"max":[0.5393912196159363,0.640625],"min":[0.00019877437443938106,0],"type":"VEC2"},{"bufferView":3,"componentType":5123,"count":840,"max":[567],"min":[0],"type":"SCALAR"}],"materials":[{"pbrMetallicRoughness":{"metallicFactor":0,"roughnessFactor":1,"baseColorTexture":{"index":0}},"alphaMode":"MASK","alphaCutoff":0.05,"doubleSided":true}],"textures":[{"sampler":0,"source":0,"name":"texture"}],"samplers":[{"magFilter":9728,"minFilter":9728,"wrapS":33071,"wrapT":33071}],"images":[{"mimeType":"image/png","uri":"data:image/png;base64,"}],"meshes":[{"primitives":[{"mode":4,"attributes":{"POSITION":0,"NORMAL":1,"TEXCOORD_0":2},"indices":3,"material":0}]}]}