{"asset":{"version":"2.0","generator":"Blockbench 5.1.4 glTF exporter"},"scenes":[{"nodes":[0],"name":"blockbench_export"}],"scene":0,"nodes":[{"translation":[0,-0.125,0],"name":"grass","mesh":0}],"bufferViews":[{"buffer":0,"byteOffset":0,"byteLength":12288,"target":34962,"byteStride":12},{"buffer":0,"byteOffset":12288,"byteLength":12288,"target":34962,"byteStride":12},{"buffer":0,"byteOffset":24576,"byteLength":8192,"target":34962,"byteStride":8},{"buffer":0,"byteOffset":32768,"byteLength":3072,"target":34963}],"buffers":[{"byteLength":35840,"uri":"data:application/octet-stream;base64,"}],"accessors":[{"bufferView":0,"componentType":5126,"count":1024,"max":[0.15625,0.25,0.15625],"min":[-0.15625,0.11499537527561188,-0.15625],"type":"VEC3"},{"bufferView":1,"componentType":5126,"count":1024,"max":[0.9977010488510132,0.9410235285758972,0.9977010488510132],"min":[-0.9977010488510132,0,-0.9977010488510132],"type":"VEC3"},{"bufferView":2,"componentType":5126,"count":1024,"max":[0.515625,0.5193937420845032],"min":[0,0],"type":"VEC2"},{"bufferView":3,"componentType":5123,"count":1536,"max":[1023],"min":[0],"type":"SCALAR"}],"materials":[{"pbrMetallicRoughness":{"metallicFactor":0,"roughnessFactor":1,"baseColorTexture":{"index":0}},"alphaMode":"MASK","alphaCutoff":0.05,"doubleSided":true}],"textures":[{"sampler":0,"source":0,"name":"texture"}],"samplers":[{"magFilter":9728,"minFilter":9728,"wrapS":33071,"wrapT":33071}],"images":[{"mimeType":"image/png","uri":"data:image/png;base64,"}],"meshes":[{"primitives":[{"mode":4,"attributes":{"POSITION":0,"NORMAL":1,"TEXCOORD_0":2},"indices":3,"material":0}]}]}