{"asset":{"version":"2.0","generator":"Blockbench 5.1.4 glTF exporter"},"scenes":[{"nodes":[0],"name":"blockbench_export"}],"scene":0,"nodes":[{"translation":[0,0.25,0],"name":"beveled_cuboid","mesh":0}],"bufferViews":[{"buffer":0,"byteOffset":0,"byteLength":6048,"target":34962,"byteStride":12},{"buffer":0,"byteOffset":6048,"byteLength":6048,"target":34962,"byteStride":12},{"buffer":0,"byteOffset":12096,"byteLength":4032,"target":34962,"byteStride":8},{"buffer":0,"byteOffset":16128,"byteLength":360,"target":34963},{"buffer":0,"byteOffset":16488,"byteLength":1152,"target":34963}],"buffers":[{"byteLength":17640,"uri":"data:application/octet-stream;base64,"}],"accessors":[{"bufferView":0,"componentType":5126,"count":504,"max":[0.78125,2.28125,0.78125],"min":[-0.78125,-0.265625,-0.78125],"type":"VEC3"},{"bufferView":1,"componentType":5126,"count":504,"max":[1,0.9923214912414551,1],"min":[-1,-0.9923214912414551,-1],"type":"VEC3"},{"bufferView":2,"componentType":5126,"count":504,"max":[0.5730549693107605,0.5703125],"min":[0,0],"type":"VEC2"},{"bufferView":3,"componentType":5123,"count":180,"max":[119],"min":[0],"type":"SCALAR"},{"bufferView":4,"componentType":5123,"count":576,"max":[503],"min":[120],"type":"SCALAR"}],"materials":[{"pbrMetallicRoughness":{"metallicFactor":0,"roughnessFactor":1,"baseColorTexture":{"index":0}},"alphaMode":"MASK","alphaCutoff":0.05,"doubleSided":true},{"pbrMetallicRoughness":{"metallicFactor":0,"roughnessFactor":1,"baseColorTexture":{"index":1}},"alphaMode":"MASK","alphaCutoff":0.05,"doubleSided":true}],"textures":[{"sampler":0,"source":0,"name":"trunk"},{"sampler":1,"source":1,"name":"summer"}],"samplers":[{"magFilter":9728,"minFilter":9728,"wrapS":33071,"wrapT":33071},{"magFilter":9728,"minFilter":9728,"wrapS":33071,"wrapT":33071}],"images":[{"mimeType":"image/png","uri":"data:image/png;base64,"},{"mimeType":"image/png","uri":"data:image/png;base64,"}],"meshes":[{"primitives":[{"mode":4,"attributes":{"POSITION":0,"NORMAL":1,"TEXCOORD_0":2},"indices":3,"material":0},{"mode":4,"attributes":{"POSITION":0,"NORMAL":1,"TEXCOORD_0":2},"indices":4,"material":1}]}]}